# xmcd
#
# Track frame offsets:
#	150
#	22670
#	34283
#	42788
#	62080
#	77813
#	97113
#	117385
#	128278
#	144285
#	160338
#	179135
#	194960
#
# Disc length: 2814
#
# Revision: 2
# Processed by: cddbd v1.5.2PL0 Copyright (c) Steve Scherf et al.
# Submitted via: Broken Cross Disk Manager 3.94.2201
#
DISCID=b30afc0d
DTITLE=Johnny Paycheck - Live in Branson, MO, USA
DYEAR=1993
DGENRE=
TTITLE0=Heart Don't Need Eyes to See
TTITLE1=Slide Off Of Your Satin Sheets
TTITLE2=Ragged But Right
TTITLE3=She's All I Got
TTITLE4=Once You've Had the Best
TTITLE5=Colorado Kool-Aid
TTITLE6=Old Violin
TTITLE7=A-11
TTITLE8=For a Minute There
TTITLE9=11 Months and 29 Days
TTITLE10=In Memory of a Memory
TTITLE11=I'm the Only Hell (Mama Ever Raised)
TTITLE12=Take This Job and Shove It
EXTD=
EXTT0=
EXTT1=
EXTT2=
EXTT3=
EXTT4=
EXTT5=
EXTT6=
EXTT7=
EXTT8=
EXTT9=
EXTT10=
EXTT11=
EXTT12=
PLAYORDER=
